<?xml version="1.0" encoding="UTF-8" standalone="no"?>
<svg
   xmlns:svg="http://www.w3.org/2000/svg"
   xmlns="http://www.w3.org/2000/svg"
   version="1.1"
   width="633.53125"
   height="72.518883"
   id="svg3151">
  <defs
     id="defs3153" />
  <g
     transform="translate(-71.8058,-461.81703)"
     id="layer1">
    <path
       d="m 108.08661,532.91921 c -19.216397,0 -34.850752,-15.64504 -34.850752,-34.86945 0,-19.18968 15.634355,-34.80534 34.850752,-34.80534 19.20303,0 34.83205,15.61566 34.83205,34.80534 0,19.22441 -15.62902,34.86945 -34.83205,34.86945"
       id="path76"
       style="fill:#ffffff;fill-opacity:1;fill-rule:nonzero;stroke:none" />
    <path
       d="m 108.06524,462.81703 c -19.475499,0 -35.25944,15.8347 -35.25944,35.25944 0,19.49152 15.783941,35.25944 35.25944,35.25944 19.46481,0 35.25943,-15.76792 35.25943,-35.25944 0,-19.30988 -15.53552,-35.25944 -35.25943,-35.25944 z m -9.950109,9.95011 9.883329,32.65505 0.0667,0.0667 0.0667,-0.0667 9.88333,-32.65505 12.75483,41.87058 -2.40405,0 c 0,0 -1.60003,-7.31099 -4.20709,-11.68637 -1.4264,-2.31857 -3.60341,-4.21243 -6.54437,-4.14031 -2.09419,0.0293 -3.9373,1.06847 -6.14369,4.20709 -1.37298,1.89119 -3.40574,6.67793 -3.40574,6.67793 0,0 -2.03543,-4.78674 -3.40574,-6.67793 -2.24645,-3.13862 -4.02011,-4.17771 -6.076908,-4.20709 -2.956985,-0.0722 -5.160699,1.82174 -6.611145,4.14031 -2.599047,4.37538 -4.207091,11.68637 -4.207091,11.68637 l -2.404053,0 12.754834,-41.87058 z m 132.823899,12.68805 c -1.79235,0.0171 -3.90792,0.26445 -5.54267,0.60102 -7.0412,1.40236 -15.84805,7.66625 -14.29076,15.82668 1.28216,6.82751 10.4977,10.52708 20.9019,8.48096 9.77381,-1.86715 16.13387,-9.36779 14.82499,-15.96024 -1.36229,-6.48827 -8.97246,-8.94842 -15.89346,-8.94842 z m 68.18161,0 c -1.83243,0.0171 -3.96135,0.26445 -5.60946,0.60102 -7.00113,1.40236 -15.88812,7.66625 -14.35754,15.82668 1.33559,6.82751 10.6179,10.52708 21.03546,8.48096 9.7471,-1.86715 16.06442,-9.36779 14.69144,-15.96024 -1.29552,-6.48827 -8.8763,-8.94842 -15.7599,-8.94842 z m 74.05817,0 c -1.85913,0.0171 -3.89189,0.26445 -5.60946,0.60102 -6.94771,1.40236 -15.83469,7.66625 -14.29075,15.82668 1.29552,6.82751 10.54043,10.52708 20.9019,8.48096 9.77381,-1.86715 16.1579,-9.36779 14.75821,-15.96024 -1.28216,-6.48827 -8.90568,-8.94842 -15.7599,-8.94842 z m 106.17899,0.13356 c -6.48293,-0.002 -11.11474,2.65515 -12.35416,7.27894 -0.1763,0.6304 -0.26712,1.21805 -0.26712,1.73626 0.0192,3.70758 4.0495,4.45017 7.94673,4.94166 3.93998,0.48348 7.73571,0.77998 7.67961,3.07185 0,0.22438 0.004,0.46478 -0.0667,0.73457 -0.66245,2.50021 -3.86251,4.4101 -8.74808,4.40743 -3.94799,-0.009 -6.2719,-1.39168 -6.27725,-3.80642 0,-0.31787 0.0455,-0.64108 0.13356,-1.00169 l 0.0667,-0.20023 -3.87319,0 -0.0667,0.13356 c -0.11497,0.6117 -0.13356,1.19134 -0.13356,1.73626 0.0107,4.12963 3.33362,6.07157 9.28231,6.07691 7.03052,0 12.06567,-2.82342 13.35585,-7.61283 0.14958,-0.57697 0.26712,-1.15127 0.26712,-1.66948 0.004,-2.15831 -1.42908,-3.75032 -4.40743,-4.27387 l -8.41419,-1.53592 c -2.24645,-0.40602 -2.86616,-1.25278 -2.8715,-2.20372 0,-0.21904 0.009,-0.44074 0.0667,-0.66779 0.67313,-2.53494 3.93997,-4.20977 7.27893,-4.20709 3.53129,0.002 6.33869,0.76128 6.34403,3.33896 0,0.2217 -0.0267,0.48348 -0.0667,0.73457 l 0,0.13356 3.80642,0 0.0667,-0.0667 c 0.11497,-0.55294 0.13356,-1.06046 0.13356,-1.53593 -0.0107,-4.31928 -4.45551,-5.53733 -8.88164,-5.54267 z m 29.9171,0 c -9.99018,0 -15.2417,6.89162 -16.76159,12.5545 -0.32054,1.18333 -0.53424,2.38268 -0.53424,3.60608 0,2.30255 0.67314,4.549 2.33728,6.21047 1.66414,1.66681 4.33263,2.73795 8.28062,2.73795 9.99018,0 15.2417,-6.8195 16.76159,-12.48772 0.3152,-1.18867 0.46746,-2.45214 0.46746,-3.67286 0,-2.30522 -0.60903,-4.54633 -2.2705,-6.21047 -1.66414,-1.66681 -4.33263,-2.73795 -8.28062,-2.73795 z m 125.21107,0 c -9.99285,0 -15.24704,6.88895 -16.76159,12.5545 -0.32054,1.186 -0.46746,2.38802 -0.46746,3.60608 0,2.30255 0.60369,4.549 2.2705,6.21047 1.66147,1.66414 4.32996,2.74062 8.28062,2.73795 9.98751,0.002 15.2417,-6.82217 16.76159,-12.48772 0.3152,-1.186 0.53424,-2.45214 0.53424,-3.67286 0,-2.30522 -0.67581,-4.54633 -2.33728,-6.21047 -1.66414,-1.66681 -4.33263,-2.73795 -8.28062,-2.73795 z m 60.90266,0 c -6.48026,-0.002 -11.11206,2.65515 -12.35416,7.27894 -0.17373,0.6304 -0.26711,1.21805 -0.26711,1.73626 0.0192,3.70224 4.05216,4.4475 7.94673,4.94166 3.94264,0.48348 7.80248,0.77998 7.74639,3.07185 0,0.22438 -0.0588,0.46478 -0.13356,0.73457 -0.65978,2.50021 -3.7984,4.40743 -8.6813,4.40743 -3.95066,-0.0107 -6.33869,-1.39702 -6.34403,-3.80642 0,-0.32054 0.0481,-0.64108 0.13356,-1.00169 l 0.0667,-0.20023 -3.87319,0 0,0.13356 c -0.11754,0.6117 -0.20024,1.19134 -0.20024,1.73626 0.0107,4.12963 3.33897,6.07157 9.28232,6.07691 7.03586,0 12.07101,-2.82342 13.35585,-7.61283 0.15236,-0.57964 0.26711,-1.15395 0.26711,-1.66948 0.009,-2.16098 -1.4264,-3.75032 -4.40743,-4.27387 l -8.41418,-1.53592 c -2.24645,-0.40602 -2.86884,-1.25278 -2.87151,-2.20372 0,-0.21904 0.0748,-0.44074 0.13356,-0.66779 0.67581,-2.5296 3.8732,-4.20977 7.21216,-4.20709 3.53128,0.002 6.33601,0.76128 6.34403,3.33896 0,0.2217 -0.0267,0.48081 -0.0667,0.73457 l 0,0.13356 3.8732,0 0,-0.0667 c 0.11475,-0.55294 0.20023,-1.06046 0.20023,-1.53593 -0.0107,-4.31928 -4.52229,-5.53733 -8.94842,-5.54267 z m -166.88131,0.60102 -0.0667,0.13355 -6.34403,23.77341 21.43613,0 0.73457,-2.93828 -17.76327,0 5.67623,-20.96868 -3.67286,0 z m 125.14429,0 -6.41081,23.90696 3.67286,0 5.34234,-19.96699 9.0152,19.96699 4.8081,0 6.41081,-23.90696 -3.67286,0 0,0.13355 -5.34234,19.90022 -9.0152,-20.03377 -4.8081,0 z m -100.90343,0.0667 -3.80642,14.1572 c -0.31252,1.16997 -0.46745,2.22775 -0.46745,3.2054 0.009,4.69859 3.5393,7.06791 8.88164,7.0786 6.45889,0 12.00156,-3.42978 13.8233,-10.21722 l 3.8732,-14.22398 -3.67286,0 -0.0667,0.0667 -3.80642,14.29076 c -1.2047,4.45818 -4.5864,7.14003 -9.41587,7.14538 -3.91327,-0.0171 -5.86589,-1.73359 -5.87658,-4.74133 0,-0.71854 0.10407,-1.47983 0.3339,-2.33727 l 3.8732,-14.42432 -3.67286,0 z m 28.04728,0 -0.86813,3.13862 10.01689,0 -5.54268,20.70157 3.67286,0 5.54267,-20.70157 10.01689,0 0.86813,-3.13862 -23.70663,0 z m 29.64998,0 0,0.0667 -6.4108,23.77341 3.67285,0 6.41081,-23.84019 -3.67286,0 z m -413.02958,0.0667 -8.6813,10.15044 -3.00507,-10.01688 -11.8867,0 -6.94504,23.50629 7.47927,0 3.80642,-12.95517 3.40574,12.95517 4.8081,0 11.01858,-12.15382 -3.5393,12.15382 9.54943,0 6.61114,-23.63985 -12.62127,0 z m 53.49017,0 -1.9366,7.74639 9.88333,0 -3.80642,15.89367 9.21553,0 4.14032,-15.96023 10.08366,0 1.73626,-7.54606 -29.31608,-0.13356 z m 182.0402,0 -15.96024,23.63985 7.94673,0 2.73795,-4.07353 0.0667,-0.13356 11.28569,0 0,0.13356 1.00169,4.07353 9.28231,0 -5.34233,-23.63985 -11.01858,0 z m -110.85354,0.13356 -6.7447,23.50629 8.74808,0 2.00338,-7.0786 7.01182,0.13356 c 2.53761,-0.25643 2.67117,1.53592 2.67117,1.53592 0,0 -0.0987,1.61606 -0.26712,3.27218 -0.11753,1.83243 1.66948,2.13694 1.66948,2.13694 l 9.48265,0 c -0.75861,-0.60635 -0.80135,-1.83509 -0.80135,-2.60439 0,-0.59567 0.99368,-2.0194 0.66779,-4.27387 -0.2217,-1.96598 -2.42007,-2.47083 -2.73794,-2.73795 -0.28582,-0.11753 0.0667,-0.46745 0.0667,-0.46745 0,0 5.96739,-1.70688 6.54436,-7.34572 0.69184,-5.6335 -5.80979,-6.07691 -5.80979,-6.07691 l -22.5046,0 z m 73.79106,0 -6.07691,23.50629 23.77341,0 1.66948,-6.47759 -14.69143,0 4.34065,-17.0287 -9.0152,0 z m 112.65658,2.07016 c 4.64249,0.0128 7.33236,2.59103 7.34571,6.67792 0,0.90553 -0.12009,1.89653 -0.40067,2.93829 -1.54661,5.76972 -6.4856,9.61621 -12.15383,9.61621 -4.6505,-0.0128 -7.40448,-2.52693 -7.41249,-6.61115 0,-0.90553 0.18698,-1.89653 0.46745,-2.93829 1.55195,-5.76972 6.47759,-9.68298 12.15383,-9.68298 z m 125.21107,0 c 4.64783,0.0107 7.39914,2.59103 7.41249,6.67792 0,0.90553 -0.18698,1.89653 -0.46745,2.93829 -1.54928,5.76705 -6.48026,9.61621 -12.15382,9.61621 -4.64784,-0.0107 -7.33504,-2.52426 -7.34572,-6.61115 0,-0.90553 0.12544,-1.89653 0.40067,-2.93829 1.55463,-5.76705 6.4856,-9.68298 12.15383,-9.68298 z m -261.77462,3.00506 c 0.34266,-0.0239 0.7299,-0.009 1.13525,0 2.85548,0.22972 5.61747,1.44243 6.07691,3.60608 1.31956,6.49094 -5.59343,9.22622 -4.8081,8.81486 -3.99073,2.05947 -10.09969,1.37832 -10.81824,-2.73795 -0.72122,-3.93997 2.3346,-7.88529 4.87488,-8.81486 1.60871,-0.57295 2.51133,-0.79626 3.5393,-0.86813 z m -142.10621,0.0667 c 0.34954,-0.015 0.67446,0.0214 1.00169,0.0667 2.85013,0 5.71096,1.30887 6.07691,3.47252 1.38633,6.49094 -5.55069,9.22622 -4.67455,8.81486 -4.04415,2.05947 -10.20387,1.37832 -10.88502,-2.73795 -0.72121,-3.93998 2.40406,-7.8853 4.94167,-8.81486 1.34426,-0.45677 2.49066,-0.75515 3.5393,-0.80135 z m 68.11482,0 c 0.35832,-0.015 0.73124,0.0214 1.06847,0.0667 2.79938,0 5.60411,1.30887 6.01013,3.47252 1.4264,6.49094 -5.51062,9.22622 -4.67455,8.81486 -4.03079,2.05947 -10.25462,1.37832 -10.88501,-2.73795 -0.69184,-3.93998 2.39069,-7.8853 4.94166,-8.81486 1.31421,-0.45677 2.46436,-0.75515 3.5393,-0.80135 z m 31.5198,0.26712 9.74977,0.0667 c 0,0 1.88317,-0.13356 1.73626,1.80304 -0.12822,2.23844 -2.53761,2.67117 -2.53761,2.67117 l -10.08367,0 1.13525,-4.54099 z m 106.57966,1.40236 1.6027,6.94505 -0.13355,0 -6.01014,0 -0.13355,0 4.67454,-6.94505 z"
       id="path144"
       style="fill:#000000;fill-opacity:1;fill-rule:nonzero;stroke:none" />
  </g>
</svg>
