<?xml version="1.0" encoding="UTF-8" standalone="no"?>
<!DOCTYPE svg PUBLIC "-//W3C//DTD SVG 1.1//EN"
 "http://www.w3.org/Graphics/SVG/1.1/DTD/svg11.dtd">
<!-- Generated by graphviz version 2.47.3 (20210619.1520)
 -->
<!-- Title: dependencies Pages: 1 -->
<svg width="2460pt" height="247pt"
 viewBox="0.00 0.00 2460.00 246.80" xmlns="http://www.w3.org/2000/svg" xmlns:xlink="http://www.w3.org/1999/xlink">
<g id="graph0" class="graph" transform="scale(1 1) rotate(0) translate(4 242.8)">
<title>dependencies</title>
<polygon fill="white" stroke="transparent" points="-4,4 -4,-242.8 2456,-242.8 2456,4 -4,4"/>
<text text-anchor="middle" x="1226" y="-8.2" font-family="sans-serif" font-size="14.00">dependencies</text>
<g id="clust1" class="cluster">
<title>cluster_AppModule</title>
<polygon fill="none" stroke="black" stroke-dasharray="1,5" points="8,-32.8 8,-230.8 2444,-230.8 2444,-32.8 8,-32.8"/>
</g>
<g id="clust18" class="cluster">
<title>cluster_AppModule_providers</title>
<polygon fill="none" stroke="black" points="2206,-40.8 2206,-92.8 2436,-92.8 2436,-40.8 2206,-40.8"/>
</g>
<g id="clust15" class="cluster">
<title>cluster_AppModule_imports</title>
<polygon fill="none" stroke="black" points="2054,-40.8 2054,-92.8 2198,-92.8 2198,-40.8 2054,-40.8"/>
</g>
<g id="clust17" class="cluster">
<title>cluster_AppModule_bootstrap</title>
<polygon fill="none" stroke="black" points="1124,-170.8 1124,-222.8 1248,-222.8 1248,-170.8 1124,-170.8"/>
</g>
<g id="clust2" class="cluster">
<title>cluster_AppModule_declarations</title>
<polygon fill="none" stroke="black" points="16,-40.8 16,-92.8 2046,-92.8 2046,-40.8 16,-40.8"/>
</g>
<!-- AddProjectDialogComponent -->
<g id="node1" class="node">
<title>AddProjectDialogComponent</title>
<polygon fill="#ffffb3" stroke="black" points="2037.7,-84.8 1854.3,-84.8 1854.3,-48.8 2037.7,-48.8 2037.7,-84.8"/>
<text text-anchor="middle" x="1946" y="-62.6" font-family="Times,serif" font-size="14.00">AddProjectDialogComponent</text>
</g>
<!-- AppModule -->
<g id="node13" class="node">
<title>AppModule</title>
<polygon fill="#8dd3c7" stroke="black" points="1227.66,-149.8 1224.66,-153.8 1203.66,-153.8 1200.66,-149.8 1144.34,-149.8 1144.34,-113.8 1227.66,-113.8 1227.66,-149.8"/>
<text text-anchor="middle" x="1186" y="-127.6" font-family="Times,serif" font-size="14.00">AppModule</text>
</g>
<!-- AddProjectDialogComponent&#45;&gt;AppModule -->
<g id="edge1" class="edge">
<title>AddProjectDialogComponent&#45;&gt;AppModule</title>
<path fill="none" stroke="black" d="M1946,-85.02C1946,-105.17 1946,-134.8 1946,-134.8 1946,-134.8 1237.67,-134.8 1237.67,-134.8"/>
<polygon fill="black" stroke="black" points="1237.67,-131.3 1227.67,-134.8 1237.67,-138.3 1237.67,-131.3"/>
</g>
<!-- AddUserDialogComponent -->
<g id="node2" class="node">
<title>AddUserDialogComponent</title>
<polygon fill="#ffffb3" stroke="black" points="1835.97,-84.8 1666.03,-84.8 1666.03,-48.8 1835.97,-48.8 1835.97,-84.8"/>
<text text-anchor="middle" x="1751" y="-62.6" font-family="Times,serif" font-size="14.00">AddUserDialogComponent</text>
</g>
<!-- AddUserDialogComponent&#45;&gt;AppModule -->
<g id="edge2" class="edge">
<title>AddUserDialogComponent&#45;&gt;AppModule</title>
<path fill="none" stroke="black" d="M1751,-85.02C1751,-103.63 1751,-129.8 1751,-129.8 1751,-129.8 1238.01,-129.8 1238.01,-129.8"/>
<polygon fill="black" stroke="black" points="1238.01,-126.3 1228.01,-129.8 1238.01,-133.3 1238.01,-126.3"/>
</g>
<!-- AppComponent -->
<g id="node3" class="node">
<title>AppComponent</title>
<polygon fill="#ffffb3" stroke="black" points="1647.94,-84.8 1542.06,-84.8 1542.06,-48.8 1647.94,-48.8 1647.94,-84.8"/>
<text text-anchor="middle" x="1595" y="-62.6" font-family="Times,serif" font-size="14.00">AppComponent</text>
</g>
<!-- AppComponent&#45;&gt;AppModule -->
<g id="edge3" class="edge">
<title>AppComponent&#45;&gt;AppModule</title>
<path fill="none" stroke="black" d="M1595,-84.83C1595,-101.86 1595,-124.8 1595,-124.8 1595,-124.8 1237.85,-124.8 1237.85,-124.8"/>
<polygon fill="black" stroke="black" points="1237.85,-121.3 1227.85,-124.8 1237.85,-128.3 1237.85,-121.3"/>
</g>
<!-- DashBoardComponent -->
<g id="node4" class="node">
<title>DashBoardComponent</title>
<polygon fill="#ffffb3" stroke="black" points="1524.31,-84.8 1379.69,-84.8 1379.69,-48.8 1524.31,-48.8 1524.31,-84.8"/>
<text text-anchor="middle" x="1452" y="-62.6" font-family="Times,serif" font-size="14.00">DashBoardComponent</text>
</g>
<!-- DashBoardComponent&#45;&gt;AppModule -->
<g id="edge4" class="edge">
<title>DashBoardComponent&#45;&gt;AppModule</title>
<path fill="none" stroke="black" d="M1452,-85.04C1452,-100.37 1452,-119.8 1452,-119.8 1452,-119.8 1237.86,-119.8 1237.86,-119.8"/>
<polygon fill="black" stroke="black" points="1237.86,-116.3 1227.86,-119.8 1237.86,-123.3 1237.86,-116.3"/>
</g>
<!-- DialogFileUploadComponent -->
<g id="node5" class="node">
<title>DialogFileUploadComponent</title>
<polygon fill="#ffffb3" stroke="black" points="1362.43,-84.8 1179.57,-84.8 1179.57,-48.8 1362.43,-48.8 1362.43,-84.8"/>
<text text-anchor="middle" x="1271" y="-62.6" font-family="Times,serif" font-size="14.00">DialogFileUploadComponent</text>
</g>
<!-- DialogFileUploadComponent&#45;&gt;AppModule -->
<g id="edge5" class="edge">
<title>DialogFileUploadComponent&#45;&gt;AppModule</title>
<path fill="none" stroke="black" d="M1203.81,-84.91C1203.81,-84.91 1203.81,-103.79 1203.81,-103.79"/>
<polygon fill="black" stroke="black" points="1200.31,-103.79 1203.81,-113.79 1207.31,-103.79 1200.31,-103.79"/>
</g>
<!-- HeaderComponent -->
<g id="node6" class="node">
<title>HeaderComponent</title>
<polygon fill="#ffffb3" stroke="black" points="1161.74,-84.8 1040.26,-84.8 1040.26,-48.8 1161.74,-48.8 1161.74,-84.8"/>
<text text-anchor="middle" x="1101" y="-62.6" font-family="Times,serif" font-size="14.00">HeaderComponent</text>
</g>
<!-- HeaderComponent&#45;&gt;AppModule -->
<g id="edge6" class="edge">
<title>HeaderComponent&#45;&gt;AppModule</title>
<path fill="none" stroke="black" d="M1153.02,-84.91C1153.02,-84.91 1153.02,-103.79 1153.02,-103.79"/>
<polygon fill="black" stroke="black" points="1149.52,-103.79 1153.02,-113.79 1156.52,-103.79 1149.52,-103.79"/>
</g>
<!-- LoginComponent -->
<g id="node7" class="node">
<title>LoginComponent</title>
<polygon fill="#ffffb3" stroke="black" points="1022.28,-84.8 907.72,-84.8 907.72,-48.8 1022.28,-48.8 1022.28,-84.8"/>
<text text-anchor="middle" x="965" y="-62.6" font-family="Times,serif" font-size="14.00">LoginComponent</text>
</g>
<!-- LoginComponent&#45;&gt;AppModule -->
<g id="edge7" class="edge">
<title>LoginComponent&#45;&gt;AppModule</title>
<path fill="none" stroke="black" d="M965,-85.04C965,-100.37 965,-119.8 965,-119.8 965,-119.8 1134.17,-119.8 1134.17,-119.8"/>
<polygon fill="black" stroke="black" points="1134.17,-123.3 1144.17,-119.8 1134.17,-116.3 1134.17,-123.3"/>
</g>
<!-- ProjectManagementComponent -->
<g id="node8" class="node">
<title>ProjectManagementComponent</title>
<polygon fill="#ffffb3" stroke="black" points="890.07,-84.8 695.93,-84.8 695.93,-48.8 890.07,-48.8 890.07,-84.8"/>
<text text-anchor="middle" x="793" y="-62.6" font-family="Times,serif" font-size="14.00">ProjectManagementComponent</text>
</g>
<!-- ProjectManagementComponent&#45;&gt;AppModule -->
<g id="edge8" class="edge">
<title>ProjectManagementComponent&#45;&gt;AppModule</title>
<path fill="none" stroke="black" d="M793,-84.83C793,-101.86 793,-124.8 793,-124.8 793,-124.8 1134.31,-124.8 1134.31,-124.8"/>
<polygon fill="black" stroke="black" points="1134.31,-128.3 1144.31,-124.8 1134.31,-121.3 1134.31,-128.3"/>
</g>
<!-- ProjectTableComponent -->
<g id="node9" class="node">
<title>ProjectTableComponent</title>
<polygon fill="#ffffb3" stroke="black" points="678.36,-84.8 525.64,-84.8 525.64,-48.8 678.36,-48.8 678.36,-84.8"/>
<text text-anchor="middle" x="602" y="-62.6" font-family="Times,serif" font-size="14.00">ProjectTableComponent</text>
</g>
<!-- ProjectTableComponent&#45;&gt;AppModule -->
<g id="edge9" class="edge">
<title>ProjectTableComponent&#45;&gt;AppModule</title>
<path fill="none" stroke="black" d="M602,-85.02C602,-103.63 602,-129.8 602,-129.8 602,-129.8 1134,-129.8 1134,-129.8"/>
<polygon fill="black" stroke="black" points="1134,-133.3 1144,-129.8 1134,-126.3 1134,-133.3"/>
</g>
<!-- SidenavComponent -->
<g id="node10" class="node">
<title>SidenavComponent</title>
<polygon fill="#ffffb3" stroke="black" points="507.44,-84.8 380.56,-84.8 380.56,-48.8 507.44,-48.8 507.44,-84.8"/>
<text text-anchor="middle" x="444" y="-62.6" font-family="Times,serif" font-size="14.00">SidenavComponent</text>
</g>
<!-- SidenavComponent&#45;&gt;AppModule -->
<g id="edge10" class="edge">
<title>SidenavComponent&#45;&gt;AppModule</title>
<path fill="none" stroke="black" d="M444,-85.02C444,-105.17 444,-134.8 444,-134.8 444,-134.8 1134.25,-134.8 1134.25,-134.8"/>
<polygon fill="black" stroke="black" points="1134.25,-138.3 1144.25,-134.8 1134.25,-131.3 1134.25,-138.3"/>
</g>
<!-- UserManagementComponent -->
<g id="node11" class="node">
<title>UserManagementComponent</title>
<polygon fill="#ffffb3" stroke="black" points="362.34,-84.8 181.66,-84.8 181.66,-48.8 362.34,-48.8 362.34,-84.8"/>
<text text-anchor="middle" x="272" y="-62.6" font-family="Times,serif" font-size="14.00">UserManagementComponent</text>
</g>
<!-- UserManagementComponent&#45;&gt;AppModule -->
<g id="edge11" class="edge">
<title>UserManagementComponent&#45;&gt;AppModule</title>
<path fill="none" stroke="black" d="M272,-84.84C272,-106.46 272,-139.8 272,-139.8 272,-139.8 1134.05,-139.8 1134.05,-139.8"/>
<polygon fill="black" stroke="black" points="1134.05,-143.3 1144.05,-139.8 1134.05,-136.3 1134.05,-143.3"/>
</g>
<!-- UserTableComponent -->
<g id="node12" class="node">
<title>UserTableComponent</title>
<polygon fill="#ffffb3" stroke="black" points="163.63,-84.8 24.37,-84.8 24.37,-48.8 163.63,-48.8 163.63,-84.8"/>
<text text-anchor="middle" x="94" y="-62.6" font-family="Times,serif" font-size="14.00">UserTableComponent</text>
</g>
<!-- UserTableComponent&#45;&gt;AppModule -->
<g id="edge12" class="edge">
<title>UserTableComponent&#45;&gt;AppModule</title>
<path fill="none" stroke="black" d="M94,-84.89C94,-107.93 94,-144.8 94,-144.8 94,-144.8 1134.19,-144.8 1134.19,-144.8"/>
<polygon fill="black" stroke="black" points="1134.19,-148.3 1144.19,-144.8 1134.19,-141.3 1134.19,-148.3"/>
</g>
<!-- AppComponent  -->
<g id="node15" class="node">
<title>AppComponent </title>
<polygon fill="#80b1d3" stroke="black" points="1240.44,-214.8 1131.56,-214.8 1131.56,-178.8 1240.44,-178.8 1240.44,-214.8"/>
<text text-anchor="middle" x="1186" y="-192.6" font-family="Times,serif" font-size="14.00">AppComponent </text>
</g>
<!-- AppModule&#45;&gt;AppComponent  -->
<g id="edge14" class="edge">
<title>AppModule&#45;&gt;AppComponent </title>
<path fill="none" stroke="black" stroke-dasharray="1,5" d="M1186,-149.91C1186,-149.91 1186,-168.79 1186,-168.79"/>
<polygon fill="black" stroke="black" points="1182.5,-168.79 1186,-178.79 1189.5,-168.79 1182.5,-168.79"/>
</g>
<!-- AppRoutingModule -->
<g id="node14" class="node">
<title>AppRoutingModule</title>
<polygon fill="#8dd3c7" stroke="black" points="2190.27,-84.8 2187.27,-88.8 2166.27,-88.8 2163.27,-84.8 2061.73,-84.8 2061.73,-48.8 2190.27,-48.8 2190.27,-84.8"/>
<text text-anchor="middle" x="2126" y="-62.6" font-family="Times,serif" font-size="14.00">AppRoutingModule</text>
</g>
<!-- AppRoutingModule&#45;&gt;AppModule -->
<g id="edge13" class="edge">
<title>AppRoutingModule&#45;&gt;AppModule</title>
<path fill="none" stroke="black" d="M2126,-84.84C2126,-106.46 2126,-139.8 2126,-139.8 2126,-139.8 1237.91,-139.8 1237.91,-139.8"/>
<polygon fill="black" stroke="black" points="1237.91,-136.3 1227.91,-139.8 1237.91,-143.3 1237.91,-136.3"/>
</g>
<!-- TokenInterceptorService -->
<g id="node16" class="node">
<title>TokenInterceptorService</title>
<ellipse fill="#fdb462" stroke="black" cx="2321" cy="-66.8" rx="107.04" ry="18"/>
<text text-anchor="middle" x="2321" y="-62.6" font-family="Times,serif" font-size="14.00">TokenInterceptorService</text>
</g>
<!-- TokenInterceptorService&#45;&gt;AppModule -->
<g id="edge15" class="edge">
<title>TokenInterceptorService&#45;&gt;AppModule</title>
<path fill="none" stroke="black" d="M2321,-84.89C2321,-107.93 2321,-144.8 2321,-144.8 2321,-144.8 1237.74,-144.8 1237.74,-144.8"/>
<polygon fill="black" stroke="black" points="1237.74,-141.3 1227.74,-144.8 1237.74,-148.3 1237.74,-141.3"/>
</g>
</g>
</svg>
