<?xml version="1.0" encoding="UTF-8" standalone="no"?>
<!DOCTYPE svg PUBLIC "-//W3C//DTD SVG 1.1//EN"
 "http://www.w3.org/Graphics/SVG/1.1/DTD/svg11.dtd">
<!-- Generated by graphviz version 2.47.3 (20210619.1520)
 -->
<!-- Title: dependencies Pages: 1 -->
<svg width="2460pt" height="247pt"
 viewBox="0.00 0.00 2460.00 246.80" xmlns="http://www.w3.org/2000/svg" xmlns:xlink="http://www.w3.org/1999/xlink">
<g id="graph0" class="graph" transform="scale(1 1) rotate(0) translate(4 242.8)">
<title>dependencies</title>
<polygon fill="white" stroke="transparent" points="-4,4 -4,-242.8 2456,-242.8 2456,4 -4,4"/>
<text text-anchor="middle" x="1226" y="-8.2" font-family="sans-serif" font-size="14.00">dependencies</text>
<g id="clust1" class="cluster">
<title>cluster_AppModule</title>
<polygon fill="none" stroke="black" stroke-dasharray="1,5" points="8,-32.8 8,-230.8 2444,-230.8 2444,-32.8 8,-32.8"/>
</g>
<g id="clust2" class="cluster">
<title>cluster_AppModule_declarations</title>
<polygon fill="none" stroke="black" points="406,-40.8 406,-92.8 2436,-92.8 2436,-40.8 406,-40.8"/>
</g>
<g id="clust15" class="cluster">
<title>cluster_AppModule_imports</title>
<polygon fill="none" stroke="black" points="254,-40.8 254,-92.8 398,-92.8 398,-40.8 254,-40.8"/>
</g>
<g id="clust17" class="cluster">
<title>cluster_AppModule_bootstrap</title>
<polygon fill="none" stroke="black" points="1207,-170.8 1207,-222.8 1331,-222.8 1331,-170.8 1207,-170.8"/>
</g>
<g id="clust18" class="cluster">
<title>cluster_AppModule_providers</title>
<polygon fill="none" stroke="black" points="16,-40.8 16,-92.8 246,-92.8 246,-40.8 16,-40.8"/>
</g>
<!-- AddProjectDialogComponent -->
<g id="node1" class="node">
<title>AddProjectDialogComponent</title>
<polygon fill="#ffffb3" stroke="black" points="2427.7,-84.8 2244.3,-84.8 2244.3,-48.8 2427.7,-48.8 2427.7,-84.8"/>
<text text-anchor="middle" x="2336" y="-62.6" font-family="Times,serif" font-size="14.00">AddProjectDialogComponent</text>
</g>
<!-- AppModule -->
<g id="node13" class="node">
<title>AppModule</title>
<polygon fill="#8dd3c7" stroke="black" points="1310.66,-149.8 1307.66,-153.8 1286.66,-153.8 1283.66,-149.8 1227.34,-149.8 1227.34,-113.8 1310.66,-113.8 1310.66,-149.8"/>
<text text-anchor="middle" x="1269" y="-127.6" font-family="Times,serif" font-size="14.00">AppModule</text>
</g>
<!-- AddProjectDialogComponent&#45;&gt;AppModule -->
<g id="edge1" class="edge">
<title>AddProjectDialogComponent&#45;&gt;AppModule</title>
<path fill="none" stroke="black" d="M2336,-84.89C2336,-107.93 2336,-144.8 2336,-144.8 2336,-144.8 1320.83,-144.8 1320.83,-144.8"/>
<polygon fill="black" stroke="black" points="1320.83,-141.3 1310.83,-144.8 1320.83,-148.3 1320.83,-141.3"/>
</g>
<!-- AddUserDialogComponent -->
<g id="node2" class="node">
<title>AddUserDialogComponent</title>
<polygon fill="#ffffb3" stroke="black" points="2225.97,-84.8 2056.03,-84.8 2056.03,-48.8 2225.97,-48.8 2225.97,-84.8"/>
<text text-anchor="middle" x="2141" y="-62.6" font-family="Times,serif" font-size="14.00">AddUserDialogComponent</text>
</g>
<!-- AddUserDialogComponent&#45;&gt;AppModule -->
<g id="edge2" class="edge">
<title>AddUserDialogComponent&#45;&gt;AppModule</title>
<path fill="none" stroke="black" d="M2141,-84.84C2141,-106.46 2141,-139.8 2141,-139.8 2141,-139.8 1320.76,-139.8 1320.76,-139.8"/>
<polygon fill="black" stroke="black" points="1320.76,-136.3 1310.76,-139.8 1320.76,-143.3 1320.76,-136.3"/>
</g>
<!-- AppComponent -->
<g id="node3" class="node">
<title>AppComponent</title>
<polygon fill="#ffffb3" stroke="black" points="2037.94,-84.8 1932.06,-84.8 1932.06,-48.8 2037.94,-48.8 2037.94,-84.8"/>
<text text-anchor="middle" x="1985" y="-62.6" font-family="Times,serif" font-size="14.00">AppComponent</text>
</g>
<!-- AppComponent&#45;&gt;AppModule -->
<g id="edge3" class="edge">
<title>AppComponent&#45;&gt;AppModule</title>
<path fill="none" stroke="black" d="M1985,-85.02C1985,-105.17 1985,-134.8 1985,-134.8 1985,-134.8 1320.85,-134.8 1320.85,-134.8"/>
<polygon fill="black" stroke="black" points="1320.85,-131.3 1310.85,-134.8 1320.85,-138.3 1320.85,-131.3"/>
</g>
<!-- DashBoardComponent -->
<g id="node4" class="node">
<title>DashBoardComponent</title>
<polygon fill="#ffffb3" stroke="black" points="1914.31,-84.8 1769.69,-84.8 1769.69,-48.8 1914.31,-48.8 1914.31,-84.8"/>
<text text-anchor="middle" x="1842" y="-62.6" font-family="Times,serif" font-size="14.00">DashBoardComponent</text>
</g>
<!-- DashBoardComponent&#45;&gt;AppModule -->
<g id="edge4" class="edge">
<title>DashBoardComponent&#45;&gt;AppModule</title>
<path fill="none" stroke="black" d="M1842,-85.02C1842,-103.63 1842,-129.8 1842,-129.8 1842,-129.8 1320.67,-129.8 1320.67,-129.8"/>
<polygon fill="black" stroke="black" points="1320.67,-126.3 1310.67,-129.8 1320.67,-133.3 1320.67,-126.3"/>
</g>
<!-- DialogFileUploadComponent -->
<g id="node5" class="node">
<title>DialogFileUploadComponent</title>
<polygon fill="#ffffb3" stroke="black" points="1752.43,-84.8 1569.57,-84.8 1569.57,-48.8 1752.43,-48.8 1752.43,-84.8"/>
<text text-anchor="middle" x="1661" y="-62.6" font-family="Times,serif" font-size="14.00">DialogFileUploadComponent</text>
</g>
<!-- DialogFileUploadComponent&#45;&gt;AppModule -->
<g id="edge5" class="edge">
<title>DialogFileUploadComponent&#45;&gt;AppModule</title>
<path fill="none" stroke="black" d="M1661,-84.83C1661,-101.86 1661,-124.8 1661,-124.8 1661,-124.8 1320.95,-124.8 1320.95,-124.8"/>
<polygon fill="black" stroke="black" points="1320.95,-121.3 1310.95,-124.8 1320.95,-128.3 1320.95,-121.3"/>
</g>
<!-- HeaderComponent -->
<g id="node6" class="node">
<title>HeaderComponent</title>
<polygon fill="#ffffb3" stroke="black" points="1551.74,-84.8 1430.26,-84.8 1430.26,-48.8 1551.74,-48.8 1551.74,-84.8"/>
<text text-anchor="middle" x="1491" y="-62.6" font-family="Times,serif" font-size="14.00">HeaderComponent</text>
</g>
<!-- HeaderComponent&#45;&gt;AppModule -->
<g id="edge6" class="edge">
<title>HeaderComponent&#45;&gt;AppModule</title>
<path fill="none" stroke="black" d="M1491,-85.04C1491,-100.37 1491,-119.8 1491,-119.8 1491,-119.8 1320.76,-119.8 1320.76,-119.8"/>
<polygon fill="black" stroke="black" points="1320.76,-116.3 1310.76,-119.8 1320.76,-123.3 1320.76,-116.3"/>
</g>
<!-- LoginComponent -->
<g id="node7" class="node">
<title>LoginComponent</title>
<polygon fill="#ffffb3" stroke="black" points="1412.28,-84.8 1297.72,-84.8 1297.72,-48.8 1412.28,-48.8 1412.28,-84.8"/>
<text text-anchor="middle" x="1355" y="-62.6" font-family="Times,serif" font-size="14.00">LoginComponent</text>
</g>
<!-- LoginComponent&#45;&gt;AppModule -->
<g id="edge7" class="edge">
<title>LoginComponent&#45;&gt;AppModule</title>
<path fill="none" stroke="black" d="M1304.22,-84.91C1304.22,-84.91 1304.22,-103.79 1304.22,-103.79"/>
<polygon fill="black" stroke="black" points="1300.72,-103.79 1304.22,-113.79 1307.72,-103.79 1300.72,-103.79"/>
</g>
<!-- ProjectManagementComponent -->
<g id="node8" class="node">
<title>ProjectManagementComponent</title>
<polygon fill="#ffffb3" stroke="black" points="1280.07,-84.8 1085.93,-84.8 1085.93,-48.8 1280.07,-48.8 1280.07,-84.8"/>
<text text-anchor="middle" x="1183" y="-62.6" font-family="Times,serif" font-size="14.00">ProjectManagementComponent</text>
</g>
<!-- ProjectManagementComponent&#45;&gt;AppModule -->
<g id="edge8" class="edge">
<title>ProjectManagementComponent&#45;&gt;AppModule</title>
<path fill="none" stroke="black" d="M1253.6,-84.91C1253.6,-84.91 1253.6,-103.79 1253.6,-103.79"/>
<polygon fill="black" stroke="black" points="1250.1,-103.79 1253.6,-113.79 1257.1,-103.79 1250.1,-103.79"/>
</g>
<!-- ProjectTableComponent -->
<g id="node9" class="node">
<title>ProjectTableComponent</title>
<polygon fill="#ffffb3" stroke="black" points="1068.36,-84.8 915.64,-84.8 915.64,-48.8 1068.36,-48.8 1068.36,-84.8"/>
<text text-anchor="middle" x="992" y="-62.6" font-family="Times,serif" font-size="14.00">ProjectTableComponent</text>
</g>
<!-- ProjectTableComponent&#45;&gt;AppModule -->
<g id="edge9" class="edge">
<title>ProjectTableComponent&#45;&gt;AppModule</title>
<path fill="none" stroke="black" d="M992,-85.04C992,-100.37 992,-119.8 992,-119.8 992,-119.8 1217.23,-119.8 1217.23,-119.8"/>
<polygon fill="black" stroke="black" points="1217.23,-123.3 1227.23,-119.8 1217.23,-116.3 1217.23,-123.3"/>
</g>
<!-- SidenavComponent -->
<g id="node10" class="node">
<title>SidenavComponent</title>
<polygon fill="#ffffb3" stroke="black" points="897.44,-84.8 770.56,-84.8 770.56,-48.8 897.44,-48.8 897.44,-84.8"/>
<text text-anchor="middle" x="834" y="-62.6" font-family="Times,serif" font-size="14.00">SidenavComponent</text>
</g>
<!-- SidenavComponent&#45;&gt;AppModule -->
<g id="edge10" class="edge">
<title>SidenavComponent&#45;&gt;AppModule</title>
<path fill="none" stroke="black" d="M834,-84.83C834,-101.86 834,-124.8 834,-124.8 834,-124.8 1217.29,-124.8 1217.29,-124.8"/>
<polygon fill="black" stroke="black" points="1217.29,-128.3 1227.29,-124.8 1217.29,-121.3 1217.29,-128.3"/>
</g>
<!-- UserManagementComponent -->
<g id="node11" class="node">
<title>UserManagementComponent</title>
<polygon fill="#ffffb3" stroke="black" points="752.34,-84.8 571.66,-84.8 571.66,-48.8 752.34,-48.8 752.34,-84.8"/>
<text text-anchor="middle" x="662" y="-62.6" font-family="Times,serif" font-size="14.00">UserManagementComponent</text>
</g>
<!-- UserManagementComponent&#45;&gt;AppModule -->
<g id="edge11" class="edge">
<title>UserManagementComponent&#45;&gt;AppModule</title>
<path fill="none" stroke="black" d="M662,-85.02C662,-103.63 662,-129.8 662,-129.8 662,-129.8 1217.28,-129.8 1217.28,-129.8"/>
<polygon fill="black" stroke="black" points="1217.28,-133.3 1227.28,-129.8 1217.28,-126.3 1217.28,-133.3"/>
</g>
<!-- UserTableComponent -->
<g id="node12" class="node">
<title>UserTableComponent</title>
<polygon fill="#ffffb3" stroke="black" points="553.63,-84.8 414.37,-84.8 414.37,-48.8 553.63,-48.8 553.63,-84.8"/>
<text text-anchor="middle" x="484" y="-62.6" font-family="Times,serif" font-size="14.00">UserTableComponent</text>
</g>
<!-- UserTableComponent&#45;&gt;AppModule -->
<g id="edge12" class="edge">
<title>UserTableComponent&#45;&gt;AppModule</title>
<path fill="none" stroke="black" d="M484,-85.02C484,-105.17 484,-134.8 484,-134.8 484,-134.8 1217.07,-134.8 1217.07,-134.8"/>
<polygon fill="black" stroke="black" points="1217.07,-138.3 1227.07,-134.8 1217.07,-131.3 1217.07,-138.3"/>
</g>
<!-- AppComponent  -->
<g id="node15" class="node">
<title>AppComponent </title>
<polygon fill="#80b1d3" stroke="black" points="1323.44,-214.8 1214.56,-214.8 1214.56,-178.8 1323.44,-178.8 1323.44,-214.8"/>
<text text-anchor="middle" x="1269" y="-192.6" font-family="Times,serif" font-size="14.00">AppComponent </text>
</g>
<!-- AppModule&#45;&gt;AppComponent  -->
<g id="edge14" class="edge">
<title>AppModule&#45;&gt;AppComponent </title>
<path fill="none" stroke="black" stroke-dasharray="1,5" d="M1269,-149.91C1269,-149.91 1269,-168.79 1269,-168.79"/>
<polygon fill="black" stroke="black" points="1265.5,-168.79 1269,-178.79 1272.5,-168.79 1265.5,-168.79"/>
</g>
<!-- AppRoutingModule -->
<g id="node14" class="node">
<title>AppRoutingModule</title>
<polygon fill="#8dd3c7" stroke="black" points="390.27,-84.8 387.27,-88.8 366.27,-88.8 363.27,-84.8 261.73,-84.8 261.73,-48.8 390.27,-48.8 390.27,-84.8"/>
<text text-anchor="middle" x="326" y="-62.6" font-family="Times,serif" font-size="14.00">AppRoutingModule</text>
</g>
<!-- AppRoutingModule&#45;&gt;AppModule -->
<g id="edge13" class="edge">
<title>AppRoutingModule&#45;&gt;AppModule</title>
<path fill="none" stroke="black" d="M326,-84.84C326,-106.46 326,-139.8 326,-139.8 326,-139.8 1217.26,-139.8 1217.26,-139.8"/>
<polygon fill="black" stroke="black" points="1217.26,-143.3 1227.26,-139.8 1217.26,-136.3 1217.26,-143.3"/>
</g>
<!-- TokenInterceptorService -->
<g id="node16" class="node">
<title>TokenInterceptorService</title>
<ellipse fill="#fdb462" stroke="black" cx="131" cy="-66.8" rx="107.04" ry="18"/>
<text text-anchor="middle" x="131" y="-62.6" font-family="Times,serif" font-size="14.00">TokenInterceptorService</text>
</g>
<!-- TokenInterceptorService&#45;&gt;AppModule -->
<g id="edge15" class="edge">
<title>TokenInterceptorService&#45;&gt;AppModule</title>
<path fill="none" stroke="black" d="M131,-84.89C131,-107.93 131,-144.8 131,-144.8 131,-144.8 1217.15,-144.8 1217.15,-144.8"/>
<polygon fill="black" stroke="black" points="1217.15,-148.3 1227.15,-144.8 1217.15,-141.3 1217.15,-148.3"/>
</g>
</g>
</svg>
